# xmcd
#
# Track frame offsets: 
#        150
#        15678
#        27363
#        41019
#        57420
#        72966
#        90768
#        103470
#        117647
#        131737
#        144698
#        149146
#        163244
#
# Disc length: 2192 seconds
#
# Revision: 0
# Processed by: cddbd v1.5.1PL2 Copyright (c) Steve Scherf et al.
# Submitted via: ExactAudioCopy v0.95b1
#
DISCID=cb088e0d
DTITLE=Uncle Frank - The Ideal Food For Love
DYEAR=2005
DGENRE=Avantgarde
TTITLE0=She's Fly
TTITLE1=Whoopee With You
TTITLE2=Ideal Food For Love
TTITLE3=Irrisistable You
TTITLE4=Kiss Chase
TTITLE5=Frank's Persuasion
TTITLE6=Mamas Got A Groove
TTITLE7=I Think Were Alone
TTITLE8=It's Just Funny
TTITLE9=Pussy Footin'
TTITLE10=American Trilogy
TTITLE11=She She She
TTITLE12=Huey's Outro
EXTD=
EXTT0=
EXTT1=
EXTT2=
EXTT3=
EXTT4=
EXTT5=
EXTT6=
EXTT7=
EXTT8=
EXTT9=
EXTT10=
EXTT11=
EXTT12=
PLAYORDER=
